<svg xmlns="http://www.w3.org/2000/svg" xmlns:xlink="http://www.w3.org/1999/xlink" width="535.45" height="670.6" viewBox="0 0 535.45 670.6"><defs><linearGradient id="a" x1="382.63" y1="587.65" x2="308.97" y2="572.63" gradientUnits="userSpaceOnUse"><stop offset="0" stop-color="#ffefd6"/><stop offset="0.14" stop-color="#fae1ca"/><stop offset="0.36" stop-color="#f4d2be"/><stop offset="0.62" stop-color="#f1c9b6"/><stop offset="1" stop-color="#f0c6b4"/></linearGradient><linearGradient id="b" x1="288.64" y1="843.66" x2="214.98" y2="828.64" gradientTransform="matrix(0.89, 0.46, -0.46, 0.89, 450.67, -276.8)" xlink:href="#a"/><linearGradient id="c" x1="432.33" y1="368.92" x2="365.16" y2="396.18" gradientUnits="userSpaceOnUse"><stop offset="0" stop-color="#db9c4a"/><stop offset="0.06" stop-color="#e0a44c"/><stop offset="0.25" stop-color="#edbb52"/><stop offset="0.47" stop-color="#f7cc56"/><stop offset="0.7" stop-color="#fdd658"/><stop offset="1" stop-color="#ffd959"/></linearGradient><linearGradient id="d" x1="444.63" y1="379.41" x2="514.46" y2="345.49" gradientUnits="userSpaceOnUse"><stop offset="0" stop-color="#db914d"/><stop offset="0.09" stop-color="#e19e4d"/><stop offset="0.3" stop-color="#eeb84e"/><stop offset="0.52" stop-color="#f8ca4f"/><stop offset="0.75" stop-color="#fdd54f"/><stop offset="1" stop-color="#ffd94f"/></linearGradient><linearGradient id="e" x1="422.23" y1="372.79" x2="402.27" y2="454.59" gradientUnits="userSpaceOnUse"><stop offset="0" stop-color="#db914d"/><stop offset="0.11" stop-color="#e19c4d"/><stop offset="0.48" stop-color="#f1bd4e"/><stop offset="0.79" stop-color="#fbd24f"/><stop offset="1" stop-color="#ffd94f"/></linearGradient><linearGradient id="f" x1="450.47" y1="403.83" x2="567.6" y2="410.05" xlink:href="#d"/><linearGradient id="g" x1="425.31" y1="367.02" x2="425.31" y2="474.77" gradientUnits="userSpaceOnUse"><stop offset="0" stop-color="#7ea7b0"/><stop offset="0.57" stop-color="#92b5b9"/><stop offset="1" stop-color="#a5c1c2"/></linearGradient><linearGradient id="h" x1="456.5" y1="360" x2="456.5" y2="469.28" xlink:href="#g"/><linearGradient id="i" x1="435.86" y1="384.11" x2="451.22" y2="477.74" gradientUnits="userSpaceOnUse"><stop offset="0" stop-color="#688494"/><stop offset="0.12" stop-color="#6f8f99"/><stop offset="0.36" stop-color="#799fa2"/><stop offset="0.63" stop-color="#7fa8a6"/><stop offset="1" stop-color="#81aba8"/></linearGradient><linearGradient id="j" x1="418.95" y1="371.77" x2="451.2" y2="371.77" xlink:href="#d"/><linearGradient id="k" x1="424.11" y1="378.24" x2="355.45" y2="123.76" gradientUnits="userSpaceOnUse"><stop offset="0" stop-color="#8bacb3"/><stop offset="0.94" stop-color="#9fbcb7"/><stop offset="1" stop-color="#a1bdb7"/></linearGradient><linearGradient id="l" x1="412.65" y1="381.93" x2="351.67" y2="115.45" gradientUnits="userSpaceOnUse"><stop offset="0" stop-color="#688494"/><stop offset="0.57" stop-color="#75989e"/><stop offset="1" stop-color="#81aba8"/></linearGradient><linearGradient id="m" x1="453.68" y1="440.24" x2="360.9" y2="301.57" gradientUnits="userSpaceOnUse"><stop offset="0" stop-color="#ffefd6"/><stop offset="0.12" stop-color="#fbe4cd"/><stop offset="0.38" stop-color="#f5d3bf"/><stop offset="0.66" stop-color="#f1c9b7"/><stop offset="1" stop-color="#f0c6b4"/></linearGradient><linearGradient id="n" x1="406.89" y1="369.52" x2="418.86" y2="397.45" gradientUnits="userSpaceOnUse"><stop offset="0" stop-color="#fffce3"/><stop offset="0.32" stop-color="#fefae0"/><stop offset="0.59" stop-color="#fbf4d5"/><stop offset="0.84" stop-color="#f5ebc4"/><stop offset="1" stop-color="#f0e2b4"/></linearGradient><linearGradient id="o" x1="396.99" y1="240.48" x2="358.08" y2="385.13" xlink:href="#n"/><linearGradient id="p" x1="472.47" y1="368.58" x2="71.18" y2="509.61" gradientUnits="userSpaceOnUse"><stop offset="0" stop-color="#f2d479"/><stop offset="0.99" stop-color="#fbd27e"/></linearGradient><linearGradient id="q" x1="480.61" y1="391.74" x2="79.32" y2="532.77" xlink:href="#p"/><linearGradient id="r" x1="521.81" y1="377.26" x2="-5.97" y2="562.74" gradientUnits="userSpaceOnUse"><stop offset="0" stop-color="#d9b174"/><stop offset="0.99" stop-color="#af9057"/></linearGradient><linearGradient id="s" x1="269.09" y1="468.21" x2="271.06" y2="439.48" gradientTransform="translate(-85.22 53.72) rotate(-10.92)" gradientUnits="userSpaceOnUse"><stop offset="0" stop-color="#688494"/><stop offset="0.16" stop-color="#7595a2"/><stop offset="0.39" stop-color="#82a5b0"/><stop offset="0.65" stop-color="#8aaeb8"/><stop offset="1" stop-color="#8cb1ba"/></linearGradient><linearGradient id="t" x1="246.7" y1="441.07" x2="254.77" y2="523.26" gradientTransform="translate(-85.22 53.72) rotate(-10.92)" gradientUnits="userSpaceOnUse"><stop offset="0" stop-color="#72a5c4"/><stop offset="0.26" stop-color="#85baca"/><stop offset="0.57" stop-color="#a1d7d2"/><stop offset="1" stop-color="#dff0ee"/></linearGradient><linearGradient id="u" x1="250.39" y1="442.29" x2="256.26" y2="502.03" gradientTransform="translate(-85.22 53.72) rotate(-10.92)" gradientUnits="userSpaceOnUse"><stop offset="0" stop-color="#688494"/><stop offset="0.53" stop-color="#7a98a8"/><stop offset="1" stop-color="#8eaebd"/></linearGradient><linearGradient id="v" x1="157.65" y1="504.47" x2="124.63" y2="502.27" gradientTransform="translate(-85.22 53.72) rotate(-10.92)" gradientUnits="userSpaceOnUse"><stop offset="0" stop-color="#8ec2cf"/><stop offset="0.23" stop-color="#a8d1d9"/><stop offset="0.54" stop-color="#c5e2e5"/><stop offset="0.81" stop-color="#d7ecec"/><stop offset="1" stop-color="#ddf0ee"/></linearGradient><linearGradient id="w" x1="263.68" y1="523.49" x2="348.75" y2="518.42" xlink:href="#v"/><linearGradient id="x" x1="349.5" y1="323.54" x2="335.25" y2="322.59" gradientTransform="translate(-109.27 408.63) rotate(-35.86)" gradientUnits="userSpaceOnUse"><stop offset="0" stop-color="#455661"/><stop offset="0.29" stop-color="#536b72"/><stop offset="0.88" stop-color="#799f9e"/><stop offset="1" stop-color="#81aba8"/></linearGradient><linearGradient id="y" x1="230.48" y1="512.09" x2="225.49" y2="379.41" xlink:href="#m"/><linearGradient id="z" x1="234.68" y1="447.19" x2="238.01" y2="477.45" xlink:href="#n"/><linearGradient id="aa" x1="213.44" y1="283.93" x2="238.05" y2="454.2" xlink:href="#n"/><linearGradient id="ab" x1="331.29" y1="74.66" x2="389.18" y2="45.82" gradientUnits="userSpaceOnUse"><stop offset="0" stop-color="#79a6ab"/><stop offset="0.06" stop-color="#7ea8ac"/><stop offset="0.3" stop-color="#8dacae"/><stop offset="0.58" stop-color="#96aeb0"/><stop offset="1" stop-color="#99afb0"/></linearGradient><linearGradient id="ac" x1="301.96" y1="145.91" x2="348.85" y2="39.17" gradientUnits="userSpaceOnUse"><stop offset="0" stop-color="#94b7ba"/><stop offset="0.45" stop-color="#a9c5c4"/><stop offset="1" stop-color="#c7d9d3"/></linearGradient><linearGradient id="ad" x1="290.58" y1="178.31" x2="291.43" y2="211.92" gradientUnits="userSpaceOnUse"><stop offset="0" stop-color="#1c3d3f"/><stop offset="0.27" stop-color="#1e3f41"/><stop offset="0.39" stop-color="#244848" stop-opacity="0.99"/><stop offset="0.48" stop-color="#2f5754" stop-opacity="0.97"/><stop offset="0.55" stop-color="#3f6b65" stop-opacity="0.95"/><stop offset="0.58" stop-color="#497870" stop-opacity="0.93"/><stop offset="0.68" stop-color="#4c7b74" stop-opacity="0.88"/><stop offset="0.8" stop-color="#55867e" stop-opacity="0.74"/><stop offset="0.91" stop-color="#63968f" stop-opacity="0.51"/><stop offset="1" stop-color="#71a69f" stop-opacity="0.3"/></linearGradient><linearGradient id="ae" x1="369.08" y1="169.02" x2="369.08" y2="206.26" xlink:href="#ad"/><linearGradient id="af" x1="187.79" y1="101.59" x2="265.91" y2="19.05" xlink:href="#k"/><linearGradient id="ag" x1="186.23" y1="407.79" x2="122.39" y2="83.57" gradientUnits="userSpaceOnUse"><stop offset="0" stop-color="#89acb3"/><stop offset="0.9" stop-color="#9dbbb6"/><stop offset="1" stop-color="#a0bdb6"/></linearGradient><linearGradient id="ah" x1="83.7" y1="418.31" x2="83.7" y2="527.17" xlink:href="#ag"/><linearGradient id="ai" x1="118.65" y1="415.43" x2="118.65" y2="541.09" xlink:href="#ag"/><linearGradient id="aj" x1="99.48" y1="418.57" x2="99.48" y2="542.78" gradientUnits="userSpaceOnUse"><stop offset="0" stop-color="#8bbcbf"/><stop offset="0.4" stop-color="#a0c6c6"/><stop offset="1" stop-color="#c5d9d3"/></linearGradient><linearGradient id="ak" x1="115.01" y1="399.64" x2="229.19" y2="110.58" gradientUnits="userSpaceOnUse"><stop offset="0" stop-color="#b7cfd1"/><stop offset="0.47" stop-color="#c6d9d3"/><stop offset="1" stop-color="#c6d9d3" stop-opacity="0.3"/></linearGradient><linearGradient id="al" x1="78.86" y1="424.09" x2="41.52" y2="516.99" xlink:href="#c"/><linearGradient id="am" x1="158.28" y1="447.72" x2="143.04" y2="531.96" xlink:href="#c"/><linearGradient id="an" x1="90.84" y1="377.82" x2="41.09" y2="413.06" xlink:href="#d"/><linearGradient id="ao" x1="168.07" y1="404.12" x2="202.94" y2="463.1" xlink:href="#d"/><linearGradient id="ap" x1="72.12" y1="423.75" x2="50.84" y2="395.37" gradientUnits="userSpaceOnUse"><stop offset="0" stop-color="#f2a622"/><stop offset="0.15" stop-color="#f0af33" stop-opacity="0.86"/><stop offset="0.74" stop-color="#eacf72" stop-opacity="0.32"/><stop offset="1" stop-color="#e8dc8b" stop-opacity="0.1"/></linearGradient><linearGradient id="aq" x1="148.33" y1="429.47" x2="220.6" y2="474.26" xlink:href="#ap"/><linearGradient id="ar" x1="136.13" y1="451.73" x2="123.71" y2="431.77" gradientUnits="userSpaceOnUse"><stop offset="0" stop-color="#ebc252"/><stop offset="0.46" stop-color="#edc553"/><stop offset="0.85" stop-color="#f2d057"/><stop offset="1" stop-color="#f5d65a"/></linearGradient></defs><path d="M377.81,560.81a237.67,237.67,0,0,0-5.33-26.29,115.06,115.06,0,0,0-7.06-20.3c-5-10.51-17-22.3-27.06-20.66A24.65,24.65,0,0,0,320,506.88c-5.21,10.94-4.51,23.75-2.39,35.68,2.54,14.27,6.91,28.14,11.28,42q9.87,31.23,19.73,62.47l4.23,13.37c.88,2.8,2.1,5.89,4.06,7.93a7,7,0,0,0,4,2.19c2.88.44,5.75-1.24,7.51-3.56s2.61-5.17,3.39-8A241.15,241.15,0,0,0,377.81,560.81Z" fill="#fff4e9"/><path d="M377.81,560.81c1,37.76-5,78.54-20.93,107.48a7,7,0,0,0,4,2.19c2.88.44,5.75-1.24,7.51-3.56s2.61-5.17,3.39-8A241.15,241.15,0,0,0,377.81,560.81Z" fill="#fff4e9"/><path d="M377.81,560.81a237.67,237.67,0,0,0-5.33-26.29,115.06,115.06,0,0,0-7.06-20.3c-5-10.51-17-22.3-27.06-20.66A24.65,24.65,0,0,0,320,506.88c-5.21,10.94-4.51,23.75-2.39,35.68,2.54,14.27,6.91,28.14,11.28,42q9.87,31.23,19.73,62.47l4.23,13.37c.88,2.8,2.1,5.89,4.06,7.93C372.78,639.35,378.83,598.57,377.81,560.81Z" fill="url(#a)"/><path d="M325.88,501.66a24.66,24.66,0,0,0-22.44,3.46c-9.63,7.36-14.85,19.07-18.42,30.66-4.26,13.85-6.69,28.18-9.12,42.47q-5.47,32.29-11,64.59l-2.35,13.83c-.49,2.89-.81,6.2,0,8.91a6.93,6.93,0,0,0,2.56,3.78c2.35,1.7,5.68,1.51,8.3.25a22.66,22.66,0,0,0,6.65-5.55,241,241,0,0,0,50.17-84.56,233.27,233.27,0,0,0,7.26-25.82,114.22,114.22,0,0,0,3-21.28C340.86,520.76,335.58,504.79,325.88,501.66Z" fill="#fff4e9"/><path d="M330.27,579.5C314,613.57,290,647.09,262.59,665.58a6.93,6.93,0,0,0,2.56,3.78c2.35,1.7,5.68,1.51,8.3.25a22.66,22.66,0,0,0,6.65-5.55A241,241,0,0,0,330.27,579.5Z" fill="#fff4e9"/><path d="M330.27,579.5a233.27,233.27,0,0,0,7.26-25.82,114.22,114.22,0,0,0,3-21.28c.34-11.64-4.94-27.61-14.64-30.74a24.66,24.66,0,0,0-22.44,3.46c-9.63,7.36-14.85,19.07-18.42,30.66-4.26,13.85-6.69,28.18-9.12,42.47q-5.47,32.29-11,64.59-1.19,6.92-2.35,13.83c-.49,2.89-.81,6.2,0,8.91C290,647.09,314,613.57,330.27,579.5Z" fill="url(#b)"/><path d="M429.38,389.14c-6,8.75-12.48,17.29-20.29,24.49S392,426.68,381.74,429.35c-3.58.93-7.88,1.3-10.53-1.29-1.79-1.75-2.31-4.43-2.36-6.93-.07-3.58.65-7.11,1.08-10.66A64.32,64.32,0,0,0,364,375.09c-2.12-4.38-4.82-9.16-3.39-13.82s6.9-7.3,11.85-7.06,9.51,2.65,13.86,5c9.36,5.13,18.75,10.48,29,13.35a56.35,56.35,0,0,1,8.95,2.81c2.84,1.33,5.45,3.5,6.49,6.46S430.89,388.58,429.38,389.14Z" fill="url(#c)"/><path d="M438.1,364.81a216.64,216.64,0,0,0,48.95-48c3.27-4.42,6.67-9.21,11.83-11.12a4.68,4.68,0,0,1,3.63-.13,5.21,5.21,0,0,1,1.93,2.07c3.39,5.55,5,12,7.23,18.07a98.88,98.88,0,0,0,14.78,26.95c3.17,4.1,6.73,8.1,8.26,13.05,2.4,7.75-1.2,16.82-8,21.21a30.55,30.55,0,0,1-11.37,4,65.63,65.63,0,0,1-29.39-1.61c-10.48-3-20.19-8.69-31-10.46-4-.66-8.26-.81-11.82-2.79A10.58,10.58,0,0,1,438.1,364.81Z" fill="url(#d)"/><path d="M427.06,381.26c-.53,5.88,1.33,11.67,2.95,17.34a146.21,146.21,0,0,1,5.66,29.71c.55,7.69,0,16.19-5.3,21.83A11.46,11.46,0,0,1,423,454a18.25,18.25,0,0,1-6.61-1.26c-4.91-1.55-10.05-2.93-15.17-2.33-3.79.45-7.39,2-11.19,2.41-4.82.57-10.32-1.06-12.65-5.32a11.6,11.6,0,0,1-.77-8.28,28.83,28.83,0,0,1,3.5-7.71c6.86-11.47,15.79-21.67,22-33.5a128.7,128.7,0,0,0,8.3-20.7c.69-2.18,1.44-4.5,3.21-6,3.08-2.56,8.12-1.18,10.6,2A14.65,14.65,0,0,1,427.06,381.26Z" fill="url(#e)"/><path d="M445.19,366c2.18-1.7,7.6-.46,10.21.45,9.35,3.26,31.1,13.73,48.4,18.91a60.6,60.6,0,0,1,11.46,4.25,14.62,14.62,0,0,1,5.41,4.6,7.53,7.53,0,0,1,.92,6.82c-1.18,2.86-4.28,4.31-7.05,5.69-5.44,2.71-10.67,6.22-14,11.26s-4.56,10.83-7.21,16.08-7.56,10.18-13.44,9.84a13,13,0,0,1-8.51-4.49,33.27,33.27,0,0,1-5.15-8.37,165.56,165.56,0,0,1-11.45-32.62c-1.31-5.52-2.36-11.2-5-16.22-1.65-3.14-3.86-5.94-5.6-9a7.36,7.36,0,0,1-1.24-4.29C443.06,367.42,444.38,366,445.19,366Z" fill="url(#f)"/><path d="M420.43,381.36a187.19,187.19,0,0,1-4.63,79.83c-.69,2.47-1.44,5-1.2,7.53s1.76,5.15,4.21,5.86a6.35,6.35,0,0,0,5.94-1.81,15.56,15.56,0,0,0,3.35-5.51c3.56-8.59,5.28-17.82,6.43-27.05,2.83-22.7,2.23-46.33-6.08-67.64A10.42,10.42,0,0,0,425.6,368c-1.43-1.14-3.72-1.4-5-.09-1,1-1.06,2.52-1.05,3.91A66.61,66.61,0,0,0,420.43,381.36Z" fill="url(#g)"/><path d="M443.62,360c7.52,10.13,12.32,22,16.79,33.76,7.58,20,14.52,41,12.73,62.37-.26,3.09-.74,6.27-2.36,8.91s-4.66,4.63-7.73,4.18-5.46-3.33-6.34-6.37-.61-6.27-.44-9.43c1.5-28.11-5.7-56-15.41-82.43-.81-2.22-1.66-4.6-1.1-6.9S443,359.86,443.62,360Z" fill="url(#h)"/><path d="M438.14,360.61c17.44,27,28.75,58.86,26.56,90.9-.51,7.56-2.17,15.8-8.09,20.54-4.9,3.91-11.57,4.52-17.82,5-3.1.22-6.77.19-8.57-2.33-1.66-2.32-.82-5.51-.07-8.26,4.09-14.86,4-30.5,3.83-45.91-.13-14.07-.31-28.44-5-41.71-1.13-3.21-2.52-6.39-2.78-9.78s.88-7.14,3.78-8.91S437.55,359.71,438.14,360.61Z" fill="url(#i)"/><path d="M445.34,360a18.73,18.73,0,0,1,5.62,8.57,3.28,3.28,0,0,1,.18,1.72A3.33,3.33,0,0,1,449.9,372a28.43,28.43,0,0,1-6.07,3.6q-7.11,3.42-14.45,6.4c-2.61,1.07-5.51,2.11-8.23,1.31a2.08,2.08,0,0,1-1.07-.61,2.37,2.37,0,0,1-.4-1.15c-.26-1.8-.49-3.6-.66-5.41a4.81,4.81,0,0,1,.3-2.84,4.55,4.55,0,0,1,1.34-1.39c7.19-5.35,18.13-5.15,24.14-11.69C445.28,360.45,445.75,360.73,445.34,360Z" fill="url(#j)"/><path d="M434.2,371.7c12.64-1.43,23.39-10.58,29.79-21.57,11.95-20.5,10.53-46.51,2.76-68.93s-21.21-42.35-33-62.95a468.37,468.37,0,0,1-45.45-110.13c-2-7.49-3.91-15.14-7.74-21.88s-10-12.6-17.32-14.37C353,69.54,342.32,76.22,336.79,85.2s-7,19.8-8.14,30.29a689,689,0,0,0,.8,154.27c2.42,20.46,5.82,41,13.82,60s15,31.44,33,41.45c6.55,3.65,20.86,7.29,28.35,7.21C416,378.32,424.36,372.82,434.2,371.7Z" fill="url(#k)"/><path d="M352.81,73.27c6.31-1,11.45,4.9,14.64,10.44,12.45,21.59,16.54,46.79,22,71.1a566.28,566.28,0,0,0,31.4,97.06c4.81,11.29,10,22.43,14,34a182.63,182.63,0,0,1,9.41,44.19c.9,10.45.76,21.51-4.26,30.72-6.58,12.1-21.72,18.84-35.12,15.64-6.66-1.6-12.63-5.31-18-9.6-20-16.11-32-40.48-38.07-65.43s-6.92-50.86-8.37-76.51c-2.61-46.3-7.31-93.45,3.55-138.54C345.44,80.69,348.34,74,352.81,73.27Z" fill="url(#l)"/><path d="M398.32,332.54c3.39,1.4,5.78,4.44,7.92,7.42,7.24,10.11,13.36,21,19.46,31.81,7.3,13,14.68,26.11,18.47,40.5.9,3.44,1.59,7.16.34,10.48s-5.11,5.91-8.4,4.55a9.71,9.71,0,0,1-2.8-2C423,415.66,415.1,403.84,406.09,393c-5.88-7.06-12.24-13.72-17.73-21.08s-10.12-15.57-12-24.56a22.59,22.59,0,0,1-.19-9.85,11.54,11.54,0,0,1,5.73-7.73,12.26,12.26,0,0,1,8.65-.49C393.42,330.09,396,331.59,398.32,332.54Z" fill="url(#m)"/><path d="M384.53,397.3a28.28,28.28,0,0,0-.13,15.56,2.47,2.47,0,0,0,.64,1.24,2.41,2.41,0,0,0,1.41.47,35.47,35.47,0,0,0,22.18-4.89,24.46,24.46,0,0,1,3.6-2,35.58,35.58,0,0,1,4.46-1.15,19.35,19.35,0,0,0,11.17-7.85c1.34-2,2.3-4.21,3.66-6.19,2.42-3.56,6-6.15,9.24-9s6.42-6.08,7.55-10.23a4.08,4.08,0,0,0-.4-3.71,4.73,4.73,0,0,0-3-1.21L433,366.53a8.87,8.87,0,0,0-8.2,1.77q-13.92,9.18-28.49,17.32a38.86,38.86,0,0,0-7.56,5A16.21,16.21,0,0,0,384.53,397.3Z" fill="url(#n)"/><path d="M329.9,232.79c4.12-2.3,9.33-1.87,13.65,0s8,5,11.52,8.11q38.79,33.84,76.3,69.12c4.79,4.5,9.61,9.08,13.22,14.58a38.16,38.16,0,0,1,6.1,26.14,31.65,31.65,0,0,1-14.43,22.31c-5.27,3.17-11.38,4.57-17.14,6.7a69.05,69.05,0,0,0-19,10.71c-8.26,6.56-15.7,15.36-26.09,17.18-7.8,1.37-15.92-1.69-22-6.73S341.52,389,337.89,382c-10.36-20.1-15.5-42.43-20.41-64.51-3.73-16.72-7.39-33.56-8-50.67-.28-7.57.09-15.42,3.45-22.2S323.26,232.37,329.9,232.79Z" fill="url(#o)"/><path d="M256.57,269c-3.35,4.33-8.15-7.86-8.55-13.33s2.62-11.19,7.64-13.39c-.32-3.69,2.08-7.21,5.25-9.12s7-2.47,10.65-2.59,7.42.12,11.08-.36A67.26,67.26,0,0,0,294.33,227c7.26-2.32,14.81-4.14,22.44-3.86s15.39,2.83,20.77,8.24c1.38,1.39,2.66,3.14,2.55,5.09-.14,2.68-2.79,4.53-5.33,5.37-4.88,1.63-10.16,1.19-15.28.86-8.77-.55-17.62-.7-26.29.71s-17.2,4.43-24.2,9.73a24,24,0,0,0-5,4.84C261.62,261.27,257.07,268.31,256.57,269Z" fill="#726149"/><path d="M301,212.54c-5.79-.5-11.36,2.77-15.25,7.09s-6.45,9.63-9.29,14.7c-3.3,5.89-7.06,11.54-9.7,17.75s-4.12,13.15-2.61,19.73c2,8.61,9,15.46,17,19.19s17,4.77,25.85,5.16c7.79.33,15.84.16,23-2.89a60.23,60.23,0,0,0,9.49-5.48,20,20,0,0,0,4.95-4.14c2.05-2.67,2.6-6.17,3-9.52,1.06-8.61,1.52-17.81-2.53-25.48a47.18,47.18,0,0,0-5.54-7.75L328.7,228a49.75,49.75,0,0,0-6.21-6.68A39.44,39.44,0,0,0,301,212.54Z" fill="#fff3ed"/><path d="M340.1,265.49c6.66-6.27,5.27-38.8,29.76,17.81,5,11.59,9.33,24,8.06,36.58-1.23,12.07-7.7,23.31-16.78,31.36s-20.6,13-32.5,15.4c-8.94,1.78-18.49,2.06-26.88-1.48s-14.7-10.43-19.35-18.11-7.73-16.18-11.09-24.51c-11.78-29.11-6.9-25.81-7.82-31.67-2.22-14.28,18.86-12,26-13C296.85,276.77,330.65,274.38,340.1,265.49Z" fill="#e8e3c8"/><path d="M370.77,297.15c-6.35,12.66-114,50.13-92.17-5.28S386.21,266.33,370.77,297.15Z" fill="#f7f5e9"/><path d="M458.35,566.4a84.45,84.45,0,0,0,19.06-27.95,82.34,82.34,0,0,0,2.07-56.63c-4.15-12.56-11.26-23.9-18.23-35.14C424,386.58,392,324,360.82,260.56c-4.44-9-10.75-16.83-21.58-20.55-.13,0,.23,1.22.1,1.26,3.42,2.85,3.82,4.38,6.32,8.09A194.84,194.84,0,0,1,367.72,293a17,17,0,0,1,1.34,6.48,6.34,6.34,0,0,1-3.49,5.55c-7.26,5.07-15.47,8.59-23.6,12.08-16.57,7.09-33.51,14.29-51.48,15.65a15.44,15.44,0,0,1-6.21-.47,7.75,7.75,0,0,1-4.69-4.9c-10.22-18.83-15.7-39.86-24.59-59.34-4.53-1.68-4.79-4.13-5.92-8.4-2.23-8.47-11.67-.31-14.22,3-10.38,13.59-17.21,26.26-23.12,37.21l-4,7.45C223.09,407.64,273.16,541.85,458.35,566.4Z" fill="url(#p)"/><path d="M103.38,483.67c-8.6,19.23-13.5,40.78-9.57,61.47,1.78,19.14,13.74,35.83,28.92,47.13s33.39,17.81,51.68,22.68c88.09,23.45,185.19,11,264.49-34a91.42,91.42,0,0,0,19.45-14.58c-185.19-24.55-235.26-158.76-250.64-259-23.3,42.93-45,80.6-72.06,122.09C124.16,447.09,112,464.45,103.38,483.67Z" fill="url(#q)"/><path d="M103.38,483.67c-8.6,19.23-13.5,40.78-9.57,61.47,1.78,19.14,13.74,35.83,28.92,47.13s33.39,17.81,51.68,22.68c88.09,23.45,185.19,11,264.49-34a91.42,91.42,0,0,0,19.45-14.58c-185.19-24.55-235.26-158.76-250.64-259-23.3,42.93-45,80.6-72.06,122.09C124.16,447.09,112,464.45,103.38,483.67Z" fill="url(#r)"/><path d="M318.11,263.28a46.13,46.13,0,0,0,9.29,24.16,18.79,18.79,0,0,0,4.37,4.35,8.42,8.42,0,0,0,5.88,1.45,3.08,3.08,0,0,0,1.91,1.47c4.31,1.52,9.15-.12,12.95-2.67A19.1,19.1,0,0,0,357,288a14.54,14.54,0,0,0,2.16-13.62c4.1-1.18,6.64-5.74,6.34-10s-3-8.07-6.38-10.66a15.8,15.8,0,0,0-3.59-13.62,23,23,0,0,0-12.47-7.17c-2.15-.5-4.77-.6-6.48,1.2a15.58,15.58,0,0,1,1.15,5C337.76,241.55,336.46,258.12,318.11,263.28Z" fill="#726149"/><path d="M270.68,244.21c-5.43,2.9-9.17,8.13-11.82,13.69a103.39,103.39,0,0,0-4.63,12.34A28.06,28.06,0,0,0,253,275a24.47,24.47,0,0,0,5.86,17.89,11.11,11.11,0,0,0,8.63,3.51c-.24.69.24,1.4.7,2,3.1,3.84,6.75,7.36,11.21,9.45s9.86,2.57,14.31.44c4.15,4,11.06,4.14,16,1.19s7.94-8.46,8.63-14.11c2.52-1,3.35-4.1,3.57-6.79.72-8.78-1.52-18.2-5.84-24.59-6.41,1.1-16.5-.3-23.78-2.35s-14.22-6.06-18.58-12.24A31.31,31.31,0,0,1,270.68,244.21Z" fill="#726149"/><path d="M344.05,236.83l-.17,0-1.87-.67a.51.51,0,0,1-.31-.64.5.5,0,0,1,.64-.3c.63.22,1.26.44,1.89.68a.5.5,0,0,1-.18,1Z" fill="#c6bb8d"/><path d="M353.71,249.59h0a.51.51,0,0,1-.47-.53c0-.27,0-.53,0-.79a10.57,10.57,0,0,0-.12-1.6,10.19,10.19,0,0,0-.39-1.7.5.5,0,1,1,1-.3,12,12,0,0,1,.42,1.85,11.27,11.27,0,0,1,.13,1.75c0,.28,0,.57,0,.85A.5.5,0,0,1,353.71,249.59Zm-2.51-8.08a.51.51,0,0,1-.39-.19,11.2,11.2,0,0,0-1.81-1.83,11.73,11.73,0,0,0-1.29-.9.5.5,0,0,1-.16-.69.48.48,0,0,1,.68-.16,13.3,13.3,0,0,1,1.4,1,12.79,12.79,0,0,1,2,2,.5.5,0,0,1-.09.7A.51.51,0,0,1,351.2,241.51Z" fill="#c6bb8d"/><path d="M353.3,256.64a.51.51,0,0,1-.32-.12,10.42,10.42,0,0,0-1.57-1.08.49.49,0,0,1-.16-.72,11.67,11.67,0,0,0,.94-1.66.52.52,0,0,1,.67-.25.5.5,0,0,1,.24.67,11.14,11.14,0,0,1-.74,1.36,11.27,11.27,0,0,1,1.26.92.5.5,0,0,1,.07.7A.5.5,0,0,1,353.3,256.64Z" fill="#c6bb8d"/><path d="M357.07,267.81H357a.5.5,0,0,1-.37-.6,11,11,0,0,0,.28-2.48c0-.16,0-.31,0-.47a.5.5,0,0,1,.48-.52.49.49,0,0,1,.52.48c0,.17,0,.34,0,.51a11.78,11.78,0,0,1-.31,2.7A.5.5,0,0,1,357.07,267.81Zm-.29-6.12a.5.5,0,0,1-.47-.34,11.48,11.48,0,0,0-1.33-2.64.5.5,0,1,1,.82-.56,11.66,11.66,0,0,1,1.46,2.88.5.5,0,0,1-.31.63A.51.51,0,0,1,356.78,261.69Z" fill="#c6bb8d"/><path d="M355.51,274.25a.5.5,0,0,1-.49-.39,8.9,8.9,0,0,0-.61-1.78.49.49,0,0,1,.06-.53,9.91,9.91,0,0,0,1.06-1.58.49.49,0,0,1,.68-.2.5.5,0,0,1,.2.68,12.28,12.28,0,0,1-1,1.49,10.58,10.58,0,0,1,.56,1.7.5.5,0,0,1-.38.6Z" fill="#c6bb8d"/><path d="M346.84,286.54a.51.51,0,0,1-.5-.45.5.5,0,0,1,.45-.55,9.9,9.9,0,0,0,3.83-1.22.5.5,0,0,1,.68.19.49.49,0,0,1-.18.68,11,11,0,0,1-4.23,1.34Zm7.13-4.15a.48.48,0,0,1-.28-.08.5.5,0,0,1-.13-.7,10.11,10.11,0,0,0,1.53-3.72.5.5,0,1,1,1,.19,10.9,10.9,0,0,1-1.69,4.1A.48.48,0,0,1,354,282.39Z" fill="#c6bb8d"/><path d="M339.21,286.51a.49.49,0,0,1-.46-.31.51.51,0,0,1,.27-.65,3.1,3.1,0,0,0,1.36-1,.49.49,0,0,1,.65-.14,8.65,8.65,0,0,0,1.73.76.5.5,0,0,1-.3,1,10.13,10.13,0,0,1-1.55-.65,4.5,4.5,0,0,1-1.51,1A.58.58,0,0,1,339.21,286.51Z" fill="#c6bb8d"/><path d="M335.35,286.48a.51.51,0,0,1-.17,0,11.18,11.18,0,0,1-2.18-1.07c-.47-.28-.93-.59-1.38-.92a.5.5,0,0,1-.1-.7.51.51,0,0,1,.7-.11,14.12,14.12,0,0,0,1.3.88,10.69,10.69,0,0,0,2,1,.5.5,0,0,1-.16,1ZM329,281.91a.54.54,0,0,1-.37-.16,26.54,26.54,0,0,1-2.46-3.18A.5.5,0,0,1,327,278a24.48,24.48,0,0,0,2.37,3.05.5.5,0,0,1,0,.71A.55.55,0,0,1,329,281.91Zm-4.37-6.54a.52.52,0,0,1-.45-.28c-.56-1.13-1.08-2.33-1.59-3.67a.5.5,0,0,1,.29-.64.5.5,0,0,1,.65.29c.5,1.3,1,2.47,1.55,3.57a.5.5,0,0,1-.23.67A.46.46,0,0,1,324.63,275.37Z" fill="#c6bb8d"/><path d="M321.76,268a.5.5,0,0,1-.48-.35c-.2-.63-.4-1.27-.59-1.92a.54.54,0,0,1,.05-.41.51.51,0,0,1,.35-.22L322,265a.5.5,0,0,1,.57.41.51.51,0,0,1-.42.57l-.31.05c.14.46.28.91.43,1.36a.51.51,0,0,1-.33.63Z" fill="#c6bb8d"/><path d="M299,306.23a11.25,11.25,0,0,1-2.26-.23.5.5,0,0,1-.38-.6.51.51,0,0,1,.59-.38,10.26,10.26,0,0,0,3.79.07.5.5,0,1,1,.17,1A11.28,11.28,0,0,1,299,306.23Zm5.58-1.46a.49.49,0,0,1-.43-.26.5.5,0,0,1,.19-.68,9.31,9.31,0,0,0,1.59-1.09,12.1,12.1,0,0,0,1.35-1.33.5.5,0,1,1,.75.66,13,13,0,0,1-1.45,1.43,11.83,11.83,0,0,1-1.75,1.21A.54.54,0,0,1,304.57,304.77Zm-11.33-.42a.45.45,0,0,1-.31-.11l-.28-.22-.17-.15a2.82,2.82,0,0,0-.86-.59,3,3,0,0,0-1.24,0l-.2,0-.54.05a.5.5,0,0,1-.08-1l.5-.05.19,0a4,4,0,0,1,1.7.05,3.73,3.73,0,0,1,1.19.78l.16.15.25.2a.5.5,0,0,1,.08.7A.49.49,0,0,1,293.24,304.35Zm-7.6-1.34h-.12a19.59,19.59,0,0,1-3.85-1.42.49.49,0,0,1-.23-.66.5.5,0,0,1,.67-.24,18.16,18.16,0,0,0,3.65,1.34.51.51,0,0,1,.36.61A.49.49,0,0,1,285.64,303Zm-7.24-3.34a.42.42,0,0,1-.26-.08c-.95-.6-1.87-1.22-2.77-1.84l-.58-.4a.5.5,0,1,1,.58-.82l.56.4c.89.61,1.81,1.23,2.74,1.82a.5.5,0,0,1,.16.69A.51.51,0,0,1,278.4,299.67Zm31.39-.79a.52.52,0,0,1-.21,0,.5.5,0,0,1-.24-.67,16.34,16.34,0,0,0,1.19-3.68.5.5,0,1,1,1,.2,17.63,17.63,0,0,1-1.26,3.9A.5.5,0,0,1,309.79,298.88Zm-37.7-4.07a.51.51,0,0,1-.39-.19,6.06,6.06,0,0,1-1.43-3.05l-.35-.24a.5.5,0,0,1,.57-.82l.53.36a.47.47,0,0,1,.21.36,5.19,5.19,0,0,0,1.24,2.76.49.49,0,0,1-.07.7A.47.47,0,0,1,272.09,294.81Zm39.31-3.7a.49.49,0,0,1-.5-.49c0-.15,0-.31,0-.46a.51.51,0,0,1,.41-.51A4.53,4.53,0,0,0,314,288a.49.49,0,0,1,.7-.06.49.49,0,0,1,.06.7,5.61,5.61,0,0,1-2.83,1.87v.06a.5.5,0,0,1-.5.5ZM267,289a.46.46,0,0,1-.32-.11,30.63,30.63,0,0,1-2.95-2.79.5.5,0,1,1,.73-.68,31.15,31.15,0,0,0,2.86,2.7.5.5,0,0,1-.32.88ZM316,285.25h-.08a.5.5,0,0,1-.42-.56,9.27,9.27,0,0,0,.1-1.41,13.38,13.38,0,0,0-.23-2.41.51.51,0,0,1,.41-.58.5.5,0,0,1,.58.4,15.4,15.4,0,0,1,.24,2.59,9.75,9.75,0,0,1-.11,1.55A.5.5,0,0,1,316,285.25Zm-54.3-2.13a.53.53,0,0,1-.42-.23,19.09,19.09,0,0,1-1.84-3.67.5.5,0,0,1,.3-.64.49.49,0,0,1,.64.29,18.55,18.55,0,0,0,1.74,3.48.5.5,0,0,1-.15.69A.53.53,0,0,1,261.66,283.12Zm53.22-5.74a.49.49,0,0,1-.48-.37l-1-3.86a.5.5,0,0,1,.35-.61.52.52,0,0,1,.62.35l1,3.86a.5.5,0,0,1-.35.62Zm-55.94-1.71a.49.49,0,0,1-.49-.45,14.08,14.08,0,0,1-.09-1.58,13.44,13.44,0,0,1,.24-2.55.5.5,0,1,1,1,.19,12.26,12.26,0,0,0-.22,2.36,14.64,14.64,0,0,0,.08,1.47.5.5,0,0,1-.44.55Zm53.69-6a.51.51,0,0,1-.46-.28,4.38,4.38,0,0,0-1.77-2.1.51.51,0,0,1-.19-.68.5.5,0,0,1,.68-.19,5.35,5.35,0,0,1,2.19,2.54.5.5,0,0,1-.24.67A.52.52,0,0,1,312.63,269.71Zm-53.27-1.95a.51.51,0,0,1-.47-.33,8.6,8.6,0,0,0-1-1.86c-.11-.18-.23-.35-.33-.52-.22-.33-.41-.67-.6-1a.5.5,0,0,1,.21-.68.49.49,0,0,1,.67.21c.17.32.36.63.56.94a5.39,5.39,0,0,0,.33.5,9.55,9.55,0,0,1,1.14,2.08.49.49,0,0,1-.3.64A.51.51,0,0,1,259.36,267.76ZM256,260.57a.5.5,0,0,1-.49-.39,17.11,17.11,0,0,1-.44-3.86v-.23a.51.51,0,0,1,.5-.49h0a.49.49,0,0,1,.49.51v.21a16.29,16.29,0,0,0,.41,3.63.49.49,0,0,1-.37.6Zm.09-7.93h-.12a.5.5,0,0,1-.36-.61,17,17,0,0,1,1.48-3.84.5.5,0,0,1,.88.48,16,16,0,0,0-1.39,3.6A.5.5,0,0,1,256.06,252.64Zm3.78-6.95a.45.45,0,0,1-.34-.14.49.49,0,0,1,0-.7l.1-.11a6,6,0,0,0,.81-1,5,5,0,0,0,.5-2.17.5.5,0,0,1,.54-.46.5.5,0,0,1,.46.54,5.83,5.83,0,0,1-.64,2.59,6.4,6.4,0,0,1-.95,1.16l-.1.11A.51.51,0,0,1,259.84,245.69Zm2.46-7.41a.59.59,0,0,1-.22-.05.49.49,0,0,1-.22-.67,8.79,8.79,0,0,1,2.71-3.21.5.5,0,0,1,.59.81,7.89,7.89,0,0,0-2.41,2.84A.49.49,0,0,1,262.3,238.28Zm10.19-4.06a.57.57,0,0,1-.18,0,7.69,7.69,0,0,0-3.7-.39.5.5,0,0,1-.56-.43.49.49,0,0,1,.43-.56,8.8,8.8,0,0,1,4.18.44.49.49,0,0,1,.29.64A.49.49,0,0,1,272.49,234.22Z" fill="#c6bb8d"/><path d="M330.93,446.47c-17.63-15.53-72.93-24.09-87-10.76,21.46,5.62-37.28,42.92-39.34,44.16S330.93,446.47,330.93,446.47Z" fill="url(#s)"/><path d="M383.81,488.09c-.77-4,2.59-8,7.5-8.92h0a3.21,3.21,0,0,0,2.6-2.59,11,11,0,0,0,0-4c-3.67-19-66.93-34.41-113.28-24.14-66.07,14.63-102.24,53.74-117.74,54.66-11.48.69-65.41-52.87-35.84,6.46,3.35,6.72,6.93,9.64,7.58,13s-1.59,7.42-2.2,14.91c-5.38,66.07,24.77-3.71,35.68-7.34,14.72-4.91,62.85,18,129.62,7,32.93-5.42,68.88-25.72,86.08-43.9a3.09,3.09,0,0,0,.53-3.52A6,6,0,0,1,383.81,488.09Z" fill="url(#t)"/><path d="M280.66,448.47c-66.07,14.63-102.24,53.74-117.74,54.66-11.48.69-65.41-52.87-35.84,6.46,3.35,6.72,6.93,9.64,7.58,13a11.69,11.69,0,0,1-.34,4.67c64.94-17.79,173.69-39,251.23-44.92a10.2,10.2,0,0,1,5.76-3.19h0a3.21,3.21,0,0,0,2.6-2.59,11,11,0,0,0,0-4C390.27,453.61,327,438.2,280.66,448.47Z" opacity="0.47" fill="url(#u)"/><path d="M162.92,503.13c-11.48.69-65.41-52.88-35.84,6.46,3.35,6.72,6.93,9.64,7.58,13s-1.59,7.42-2.2,14.91c-5.31,65.18,24-1.84,35.22-7.15A33.83,33.83,0,0,1,164,520.29a35.16,35.16,0,0,1,1.25-17.54A13.49,13.49,0,0,1,162.92,503.13Z" fill="url(#v)"/><path d="M332.11,493.43a2.6,2.6,0,0,0-1.43-1.3c-20.27-7.72-41.9-21.7-38.53,24.4,3.42,46.8,35.06-3.46,39.14-10.17C335,500.31,333.21,495.73,332.11,493.43Z" fill="url(#w)"/><circle cx="356.15" cy="470.72" r="11.28" fill="#ededed"/><path d="M356.15,470.72l5.83-7.63a9.62,9.62,0,1,0,1.95,2Z" fill="url(#x)"/><circle cx="342.06" cy="490.75" r="7.5" fill="#e89299"/><path d="M235.59,411.2c2.59,2.6,3.62,6.33,4.43,9.91,2.78,12.12,4.22,24.51,5.66,36.86,1.72,14.78,3.44,29.76,1.38,44.49-.49,3.52-1.3,7.21-3.74,9.8s-7,3.47-9.5,1a9.66,9.66,0,0,1-1.8-3c-5.76-12.85-8.51-26.81-12.64-40.27-2.7-8.78-6-17.38-8.2-26.3s-3.32-18.27-1.56-27.28a22.59,22.59,0,0,1,3.63-9.16,11.57,11.57,0,0,1,8.27-4.91,12.3,12.3,0,0,1,8.17,2.89C232,407.06,233.83,409.44,235.59,411.2Z" fill="url(#y)"/><path d="M198.73,448.83a184,184,0,0,0-7.08,25.46,8.79,8.79,0,0,0-.05,4.77c.87,2.33,3.47,3.52,5.91,4a22.39,22.39,0,0,0,16.51-3,3,3,0,0,1,3.63-.5,38.18,38.18,0,0,0,11.75,2.34,45.21,45.21,0,0,0,15.17-1.08,22.39,22.39,0,0,0,12.48-8.29,4,4,0,0,1,1.49-1.54c1-.41,2,.08,3,.48,5.41,2.17,11.51,1.16,17.24.12a6.75,6.75,0,0,0,3.59-1.42,4.49,4.49,0,0,0,1.09-4,12.84,12.84,0,0,0-1.56-4c-4.09-7.8-8.4-15.63-14.55-21.94a19,19,0,0,0-5.16-4,22,22,0,0,0-6.76-1.71,132.06,132.06,0,0,0-36.29.21,36.63,36.63,0,0,0-10.89,2.9C204.89,439.36,199.66,446.24,198.73,448.83Z" fill="url(#z)"/><path d="M245,260.13c-2.93-2.24-7.16-1-10.47.68-16.37,8.1-28.8,22.78-37.09,39.06S184.67,334.07,181,352c-6.17,29.78-10.4,60.27-7.8,90.57.61,7.16,2,15,7.7,19.44,4.67,3.62,11.18,3.91,16.93,2.6s11.08-4,16.65-6c15.52-5.45,32.45-4.8,48.83-3.29,4.14.38,8.35.82,12.43,0,12.16-2.35,20-15.26,20.64-27.63s-3.31-27.88-6.76-39.77c-7.65-26.35-13.38-37.37-20.49-61.85-4.2-14.45-8-30.84-11-45.61A34.27,34.27,0,0,0,245,260.13Z" fill="url(#aa)"/><path d="M360.87,17.32c3.95-2.13,8.08-4.74,12.47-5a7.53,7.53,0,0,1,4.43,1.3c2.25,1.37,3,4.27,3.41,6.87a276,276,0,0,1,4.1,39.63c.3,10,0,20.22-3.08,29.75A6.07,6.07,0,0,1,380.33,93a4.33,4.33,0,0,1-4.4.07,12.42,12.42,0,0,1-3.45-3c-6.16-6.93-13.93-12.14-21.55-17.41a90.32,90.32,0,0,0-24.58-12c-4.18-1.36-6.41-6.24-5.78-8s2.76-4.33,3.93-5.67c8.23-9.44,13.27-14.1,24.27-22.29A136.35,136.35,0,0,1,360.87,17.32Z" fill="url(#ab)"/><path d="M376,94.48a3.42,3.42,0,0,0,4.12-.4,8.43,8.43,0,0,0,2.26-3.79c1.74-5,2.25-10.36,2.56-15.65a220.28,220.28,0,0,0-.07-26.58c-.47-7.58-1.35-15.19-3.66-22.41a13.24,13.24,0,0,0-3.41-6.12,5.59,5.59,0,0,0-6.68-.76c-10.31,5.76-17.89,15.3-24.68,25a80,80,0,0,0-7.36,12.06c-1.42,3-2.4,7-.24,9.52a9.42,9.42,0,0,0,2.26,1.81l13.08,8.5c6.2,4,12.54,8.18,17,14.07A25,25,0,0,0,376,94.48Z" fill="#ebd0ca"/><path d="M378.21,89.57c6.64,6.68,9.28,15.75,9.87,24.57.86,12.71-2.07,25.35-3.61,38a175.51,175.51,0,0,0-.65,36.3c.5,5.81,1.27,11.82-.88,17.34a26.86,26.86,0,0,1-6,8.79c-10,10.28-24.87,16.18-40,19.16a141.74,141.74,0,0,1-63.16-2.28c-14.27-3.28-26.27-12.21-34.18-23s-12-23.48-14.16-36.17c-3.2-18.93-2.14-38.7,5.82-56.54a78.8,78.8,0,0,1,43.45-41.25c17.2-6.55,36.66-7,55.35-5.5,9.53.74,19.14,2,28,5.17S372.63,84,378.21,89.57Z" fill="#fff3ed"/><path d="M218.74,190.51a14.23,14.23,0,0,0,10.35-2.63,32.43,32.43,0,0,0,7.52-7.89,92,92,0,0,0,15.31-33.73,26.87,26.87,0,0,0,41.15,3.16c3.59,6.8,11.65,10.58,19.33,10.2s14.85-4.45,20.17-10,8.94-12.51,11.81-19.65c3.15-7.82,5.48-16.05,6-23.35-5.19,20.14,4,43.14,21.59,54.2a15.5,15.5,0,0,0,7,2.72,13.36,13.36,0,0,0,8.3-2.75c6.45-4.46,10.39-12,11.68-19.7s.14-15.71-2-23.25a88.41,88.41,0,0,0-25.74-41.1,112.69,112.69,0,0,0-16.66-12.2c-12.88-7.88-27-14-41.95-16.4s-30.61-1.15-44.39,5c-20.94,9.41-35.76,29.36-43.58,51s-11.44,35.38-12.06,58.33C212.34,169.14,214.62,186.25,218.74,190.51Z" fill="url(#ac)"/><path d="M289.59,174.9c1.38-.57,3.28-1.11,4.57-.43a5.5,5.5,0,0,1,2.37,3.08A46.46,46.46,0,0,1,299,188c.41,2.85.77,5.71,1.06,8.57.36,3.41.47,7.22-2.38,9.82a9.79,9.79,0,0,1-6.79,2.29,9.37,9.37,0,0,1-6.49-2.8,9.58,9.58,0,0,1-2.13-5.36c-.82-6.13.47-12.31,2.36-18.29a15.58,15.58,0,0,1,2.08-4.6A8.11,8.11,0,0,1,289.59,174.9Z" fill="url(#ad)"/><path d="M370.43,168.79a15.31,15.31,0,0,1,2.08,3.54,39.87,39.87,0,0,1,3.62,17.31,19.7,19.7,0,0,1-.61,4.9,8.22,8.22,0,0,1-1.58,3.15,6.25,6.25,0,0,1-6.93,1.73,8.29,8.29,0,0,1-4.58-5.9,24.35,24.35,0,0,1-.2-7.72l.26-3.28a77,77,0,0,1,1.29-10.28,8.82,8.82,0,0,1,1.11-3,3.54,3.54,0,0,1,2.64-1.69A3.3,3.3,0,0,1,370.43,168.79Z" fill="url(#ae)"/><path d="M233.7,110.08a41.72,41.72,0,0,1-32.32,10.81,49.14,49.14,0,0,0,16.82-13.82,26.31,26.31,0,0,1-31-.63,26.08,26.08,0,0,0,15.49-8.1,18.88,18.88,0,0,1-11.29-13.48,23.92,23.92,0,0,0-.77-3.35c-1.24-3.34-4.74-5.19-8-6.74a19.51,19.51,0,0,1,19.62,4.17c-.61-24,4.47-48.09,13.65-70.31a18.62,18.62,0,0,1,4-6.62c1.88-1.77,4.78-2.73,8.6-1.35,7.1,1.5,13.51,5.25,19.55,9.28a196.81,196.81,0,0,1,36.23,31.2c3.39,3.73,6.76,7.82,7.79,12.75A5,5,0,0,1,292,57a4.05,4.05,0,0,1-3.09,2,86,86,0,0,0-46.61,45.48,7.68,7.68,0,0,1-2,3.18C238.13,109.33,234.87,109,233.7,110.08Z" fill="url(#af)"/><path d="M230.85,8.85c-2.38.46-3.1,3.46-3.28,5.88A240.25,240.25,0,0,0,232.91,85c.61,2.74,1.31,5.54,3,7.81s4.47,3.91,7.21,3.34c2.15-.45,3.82-2.11,5.32-3.72C258.1,82,267,70.33,279.33,63.22c1.91-1.1,4-2.18,5.08-4.1s1.9-5.54.95-7.63a57,57,0,0,0-4.58-7.5c-10.06-14.06-16.34-18.62-31.13-28.17-3.2-2.06-12.26-7.24-16.05-7.57C232.05,8.11,230.19,8.55,230.85,8.85Z" fill="#ebd0ca"/><path d="M345.49,216.16a2.18,2.18,0,0,0-1.65-.64,4.9,4.9,0,0,0-2,.52,12,12,0,0,1-1.74.75,26.68,26.68,0,0,1-3.35.51c-1.11.18-2.26.63-2.28,1.27,0,.48.63.89,1.37,1.16a12.8,12.8,0,0,0,8.06-.34,5,5,0,0,0,2-1.17C346.57,217.49,346,216.7,345.49,216.16Z" fill="#e0898c"/><path d="M293.21,214.57a62.68,62.68,0,0,1-8.51,6.91c-.34.23-.84.44-1.11.13a.78.78,0,0,1-.14-.54,6.19,6.19,0,0,1,.64-2.74c.21-.43.47-1,.22-1.36a1.1,1.1,0,0,0-.61-.41c-1.49-.47-3.09.32-4.31,1.31a2.87,2.87,0,0,1-1.36.77c-.53.07-1.15-.38-1-.89a1,1,0,0,1,.2-.39,15.89,15.89,0,0,1,8.36-6.13c.48-.15,1.13-.2,1.33.26a1.11,1.11,0,0,1,0,.65,41.78,41.78,0,0,0-.73,4.57,1,1,0,0,0,0,.42c.22.49.95.17,1.33-.2l3.33-3.18a3,3,0,0,1,1-.74,1,1,0,0,1,1.15.28C293.34,213.74,293.09,214.35,293.21,214.57Z" fill="#e0898c"/><path d="M379.57,203.63a25.25,25.25,0,0,1-3.42,4,3.8,3.8,0,0,1-1.55,1,.54.54,0,0,1-.48-.06c-.38-.28-.29-1.11-.07-1.65a2.8,2.8,0,0,0,.35-1.71.81.81,0,0,0-.75-.64,1.61,1.61,0,0,0-.88.34c-1.11.73-2.13,1.7-3.24,2.41a1.5,1.5,0,0,1-.85.31A.79.79,0,0,1,368,207a1.68,1.68,0,0,1,.69-1.46l2-1.84a14.61,14.61,0,0,1,3.27-2.46,1.68,1.68,0,0,1,1.37-.18,1.49,1.49,0,0,1,.74,1.5c-.11.81-.86,1.43-.63,2.19a.61.61,0,0,0,.73.45,1.64,1.64,0,0,0,.73-.6,14.67,14.67,0,0,1,2.51-2.95c.24-.16.63-.2.68.17a1,1,0,0,1,0,.38A7.16,7.16,0,0,1,379.57,203.63Z" fill="#e0898c"/><circle cx="298.1" cy="184.53" r="2.1" fill="#fffef8"/><circle cx="374.98" cy="176.25" r="2.1" fill="#fffef8"/><path d="M139.26,423.26c22.61,5.74,47.32-.81,66.18-14.54s32.25-34,40.74-55.72,12.36-45,14.95-68.16a652.67,652.67,0,0,0-1.86-159.24c-1.95-14.51-4.62-29.52-11.66-41-7.14-5.1-17.34-3.81-24.82.77s-12.84,11.86-18,18.94L122.9,216.49c-19.75,27.06-39.54,54.19-56.33,83.17-9.91,17.1-19,35.68-18.9,55.44s11.92,40.76,31.47,45.79C100.25,406.56,119.4,418.21,139.26,423.26Z" fill="url(#ag)"/><path d="M107.24,419.92c-8.85,11.78-34.4,53.94-49.13,83.17C57,505.33,52.33,513.53,52.78,516c.29,1.64,1.77,5.58,2.88,6.83,3.74,4.19,11.47,5,15.94,3.93,2.15-13.5,8.26-26,14.13-38.34q11.79-24.82,22.68-50.07c1.31-3,3.67-8.24,4.59-10.52a38.21,38.21,0,0,0,1.64-6.55C115,418.47,109.46,417,107.24,419.92Z" fill="url(#ah)"/><path d="M133.77,420.94c-5.05,33.42-6.54,67.27-7.81,101a31,31,0,0,1-1.13,8.54,15.87,15.87,0,0,1-16,10.51,6.09,6.09,0,0,1-4.1-1.71c-1.28-1.47-1.23-3.64-1.1-5.59,2.41-35.65,5.38-71.52,14.73-106,1.36-5,3.6-10.75,8.62-12.08a4.69,4.69,0,0,1,4.71,1,4.93,4.93,0,0,1,1,1.93C133.33,420.84,133.31,423.3,133.77,420.94Z" fill="url(#ai)"/><path d="M114.84,419.93c-5,11.47-11.14,21.36-16.14,32.81-3.7,8.47-19.78,43.67-21.83,67.92-.68,8.09-3.06,12.46,6.26,17.73a34.39,34.39,0,0,0,14,4.32c2.58.21,5.43,0,7.35-1.69,1.75-1.58,2.29-4.06,2.74-6.38,5.56-29.07,9.27-58.47,13-87.83l2.48-19.74c.41-3.22.15-7.51-3-8.37C117.42,418.06,115.23,419.91,114.84,419.93Z" fill="url(#aj)"/><path d="M244.37,82.79c10.22,39.61,7.28,81.46.75,121.85-9.2,56.83-25.54,112.91-52.93,163.55-8,14.84-17.2,29.44-30.06,40.36s-30,17.83-46.67,15.15c-18.58-3-34-17.74-40.78-35.28S68.8,351.05,74,333s14.42-34.72,24.08-50.87c16.67-27.89,34.85-54.84,53-81.78L226.19,89c2.19-3.25,5.68-6.86,8.31-8C236.79,79.9,243.41,79.27,244.37,82.79Z" fill="url(#ak)"/><path d="M118.07,445.17C94,460.41,76,483.71,53.23,500.87c-1.89,1.43-4.15,2.88-6.45,2.31s-3.6-2.85-4.48-5c-1.27-3.09-2.15-6.33-3.13-9.52a141.61,141.61,0,0,0-18.53-38.32,2.1,2.1,0,0,1-.52-1.42,2,2,0,0,1,1-1.18c13.58-9.37,30.11-13.24,46.26-16.6,13.66-2.83,27.85-5.43,41.45-2.34a21.26,21.26,0,0,1,7.83,3.18,9.91,9.91,0,0,1,4.3,7A7.4,7.4,0,0,1,118.07,445.17Z" fill="url(#al)"/><path d="M119.34,438.71c-1.74,11.53-.7,23.36,1.76,34.76s6.34,22.45,10.32,33.42q2.6,7.17,5.26,14.31c1,2.69,2.65,5.85,5.52,5.87,1.79,0,3.29-1.29,4.57-2.54a132.82,132.82,0,0,0,10.76-11.74,66.37,66.37,0,0,1,7.42-8.36c5.94-5.17,13.82-7.38,21.34-9.75,1.9-.6,3.94-1.32,5.06-3a6.13,6.13,0,0,0,.51-5.29,16.4,16.4,0,0,0-2.78-4.71c-16.14-21-39.68-34.85-63-47.5-1.61-.88-3.51-1.76-5.19-1C118.56,434.24,118.53,437.61,119.34,438.71Z" fill="url(#am)"/><path d="M104.51,435.31a174.91,174.91,0,0,1-83.26,16.1c-4.8-.27-9.74-.77-14-3.05S-.34,441.61,0,436.81a19.66,19.66,0,0,1,2-6.37c5.47-12.27,10.4-25.06,11.18-38.46.38-6.63-.26-13.29.15-19.92a15,15,0,0,1,1.75-7,10.9,10.9,0,0,1,7.3-4.65,23.78,23.78,0,0,1,8.85.32,59.23,59.23,0,0,1,19.5,7.41,107.64,107.64,0,0,1,11.7,8.46Q85.55,395,106.89,415.45a12.19,12.19,0,0,1,2.83,3.5,9.15,9.15,0,0,1,.68,4.18C110.2,428.41,107.63,433.85,104.51,435.31Z" fill="url(#an)"/><path d="M135.93,442a271.94,271.94,0,0,0,40.52,47.51c3.59,3.34,7.33,6.62,11.75,8.73s9.67,2.94,14.26,1.21c5.8-2.18,9.48-7.93,11.66-13.73s3.29-12,6.11-17.52c1.84-3.59,4.36-6.79,6.56-10.18a99.15,99.15,0,0,0,7.28-13.74,34.38,34.38,0,0,0,3.08-9.46,13.23,13.23,0,0,0-2.05-9.52c-2.19-3-5.82-4.49-9.36-5.53-12-3.49-24.74-3-37.11-1.34s-24.34,2.06-36.79,2.83c-3.71.22-9.42.33-13.14.33s-4.59,3.69-4.89,6.58C133.22,433.76,133,437.65,135.93,442Z" fill="url(#ao)"/><path d="M104,429.88a207,207,0,0,0-41.95-6c-7.92-.31-16.52-.39-22.71-5.32-2.64-2.09-4.72-5.37-4.1-8.68a8.09,8.09,0,0,1,5.47-5.81,15.84,15.84,0,0,1,8.26-.22A31.12,31.12,0,0,1,59,407.78c3,1.83,5.69,4.15,8.59,6.15,10.31,7.1,22.92,9.77,35,12.91.92.24,2,.6,2.31,1.5S103.93,430.34,104,429.88Z" fill="url(#ap)"/><path d="M142.11,435.71c12.95,10.39,26.4,21.05,42.45,25.3,6.57,1.74,14,2.24,19.81-1.24,1.63-1,3.23-2.52,3.16-4.42-.11-2.89-3.67-4.15-6.54-4.45-8.71-.92-17.59.08-26.21-1.49-12.47-2.28-23.31-9.71-33.71-17C139.79,433.47,140.64,436,142.11,435.71Z" fill="url(#aq)"/><path d="M139.81,416.74a21.25,21.25,0,0,0-5.75-.9,122.88,122.88,0,0,1-22.31-3.56c-2.4-.61-5.26-1.2-7.11.45a6.15,6.15,0,0,0-1.34,1.92c-1.86,3.78-2.33,8.06-2.77,12.25-.47,4.51-.77,9.55,1.34,13.38,3.42-1.49,7.31-2.35,10.9-3.44C123.73,433.49,133.82,426.39,139.81,416.74Z" fill="#f4dd69"/><path d="M109.67,446a46.36,46.36,0,0,0,21.47,2.31c3.2-.41,6.67-1.38,8.42-4.09a12.64,12.64,0,0,0,1.51-5.64q.78-7.2,1.55-14.42c.22-2,1-4.61-.12-5.79a7.08,7.08,0,0,0-2.69-1.65c-6,9.65-16.08,16.75-27,20.1-3.59,1.09-7.48,2-10.9,3.44a10.47,10.47,0,0,0,1.48,2.07A15.81,15.81,0,0,0,109.67,446Z" fill="url(#ar)"/></svg>